<?xml version="1.0" encoding="UTF-8" standalone="no"?>
<!-- Created with Inkscape (http://www.inkscape.org/) -->

<svg
   width="16.933334mm"
   height="16.933332mm"
   viewBox="0 0 16.933334 16.933332"
   version="1.1"
   id="svg1"
   xml:space="preserve"
   xmlns="http://www.w3.org/2000/svg"
   xmlns:svg="http://www.w3.org/2000/svg"><defs
     id="defs1"><clipPath
       clipPathUnits="userSpaceOnUse"
       id="clipPath12-7-3-0"><rect
         width="16.139584"
         height="16.139584"
         fill="#ffffff"
         transform="scale(-1,1)"
         id="rect13-4-8-6"
         x="-137.43471"
         y="67.744385"
         style="stroke-width:0.999998" /></clipPath><clipPath
       clipPathUnits="userSpaceOnUse"
       id="clipPath12-7-3-0-4-7-2"><rect
         width="16.139584"
         height="16.139584"
         fill="#ffffff"
         transform="scale(-1,1)"
         id="rect13-4-8-6-8-6-0"
         x="-137.43471"
         y="67.744385"
         style="stroke-width:0.999998" /></clipPath></defs><g
     id="layer1"
     transform="translate(-80.076825,-117.01951)"><g
       id="g96"
       transform="matrix(-1,0,0,1,284.53217,22.611364)"><g
         id="g95"
         transform="matrix(0.99983087,0,0,-0.99950545,6.3606633,176.07356)"
         style="fill:#d62e1e;fill-opacity:1;stroke-width:1.00033"><path
           id="path89"
           clip-path="url(#clipPath12-7-3-0)"
           style="fill:#d62e1e;fill-opacity:1;stroke-width:0.311668"
           d="m 129.06483,75.809539 v 2.03625 h 6.10742 v -2.03625 z"
           transform="matrix(0.3466159,0,0,2.0805393,147.02834,-73.901726)" /><path
           id="path91"
           clip-path="url(#clipPath12-7-3-0)"
           style="fill:#d62e1e;fill-opacity:1;stroke-width:0.311733"
           d="m 129.06483,75.809539 v 2.03625 h 6.10742 v -2.03625 z"
           transform="matrix(0.69329438,0,0,1.0397464,98.0501,9.2367982)" /><path
           id="path93"
           clip-path="url(#clipPath12-7-3-0)"
           style="fill:#d62e1e;fill-opacity:1;stroke-width:0.311747"
           d="m 129.06483,75.809539 v 2.03625 h 6.10742 v -2.03625 z"
           transform="matrix(0.3466159,0,0,2.0794928,140.67717,-73.821326)" /><path
           id="path95"
           clip-path="url(#clipPath12-7-3-0)"
           style="fill:#d62e1e;fill-opacity:1;stroke-width:0.311733"
           d="m 129.06483,75.809539 v 2.03625 h 6.10742 v -2.03625 z"
           transform="matrix(0.69329438,0,0,-1.0397464,98.0501,162.6457)" /></g><rect
         style="fill:none;fill-opacity:1;stroke-width:0.264583"
         id="rect95"
         width="16.933332"
         height="16.933332"
         x="187.50906"
         y="77.474815" /></g><g
       id="g86"
       transform="translate(-109.53024,42.5133)"><path
         id="path86"
         clip-path="url(#clipPath12-7-3-0-4-7-2)"
         style="fill:#d62e1e;fill-opacity:1;stroke-width:0.220392"
         d="m 129.06483,75.809539 v 2.03625 h 6.10742 v -2.03625 z"
         transform="matrix(0,0.69323288,-2.079,0,340.87787,-21.316567)" /><rect
         style="fill:none;fill-opacity:1;stroke-width:0.264583"
         id="rect86"
         width="16.933332"
         height="16.933332"
         x="-189.61983"
         y="57.57288"
         transform="scale(-1,1)" /></g><g
       id="g204"
       transform="matrix(-0.99913586,0,0,0.99972675,252.62605,39.502369)"
       style="fill:#082a59;fill-opacity:1;stroke-width:1.00057"><path
         id="path193"
         clip-path="url(#clipPath12-7-3-0)"
         style="fill:#7dc3ea;fill-opacity:1;stroke-width:0.311743"
         d="m 129.06483,75.809539 v 2.03625 h 6.10742 v -2.03625 z"
         transform="matrix(0.3466159,0,0,2.0805393,125.84561,-73.833791)" /><path
         id="path194"
         clip-path="url(#clipPath12-7-3-0)"
         style="fill:#7dc3ea;fill-opacity:1;stroke-width:0.440982"
         d="m 129.06483,75.809539 v 2.03625 h 6.10742 v -2.03625 z"
         transform="matrix(0.3466159,0,0,1.0397464,121.59998,11.417096)" /><path
         id="path195"
         clip-path="url(#clipPath12-7-3-0)"
         style="fill:#7dc3ea;fill-opacity:1;stroke-width:0.311807"
         d="m 129.06483,75.809539 v 2.03625 h 6.10742 v -2.03625 z"
         transform="matrix(0.69329438,0,0,1.0397464,72.621607,13.536414)" /><path
         id="path196"
         clip-path="url(#clipPath12-7-3-0)"
         style="fill:#7dc3ea;fill-opacity:1;stroke-width:0.440982"
         d="m 129.06483,75.809539 v 2.03625 h 6.10742 v -2.03625 z"
         transform="matrix(0.3466159,0,0,1.0397464,115.24868,11.416028)" /><path
         id="path197"
         clip-path="url(#clipPath12-7-3-0)"
         style="fill:#7dc3ea;fill-opacity:1;stroke-width:0.311821"
         d="m 129.06483,75.809539 v 2.03625 h 6.10742 v -2.03625 z"
         transform="matrix(0.3466159,0,0,2.0794928,111.01456,-73.753391)" /><path
         id="path198"
         clip-path="url(#clipPath12-7-3-0)"
         style="fill:#7dc3ea;fill-opacity:1;stroke-width:0.440982"
         d="m 129.06483,75.809539 v 2.03625 h 6.10742 v -2.03625 z"
         transform="matrix(0.3466159,0,0,-1.0397464,121.6115,160.59645)" /><path
         id="path199"
         clip-path="url(#clipPath12-7-3-0)"
         style="fill:#7dc3ea;fill-opacity:1;stroke-width:0.311807"
         d="m 129.06483,75.809539 v 2.03625 h 6.10742 v -2.03625 z"
         transform="matrix(0.69329438,0,0,-1.0397464,72.621607,158.47821)" /><path
         id="path200"
         clip-path="url(#clipPath12-7-3-0)"
         style="fill:#7dc3ea;fill-opacity:1;stroke-width:0.440982"
         d="m 129.06483,75.809539 v 2.03625 h 6.10742 v -2.03625 z"
         transform="matrix(0.3466159,0,0,-1.0397464,115.24868,160.59539)" /><path
         id="path201"
         clip-path="url(#clipPath12-7-3-0)"
         style="fill:#7dc3ea;fill-opacity:1;stroke-width:0.440982"
         d="m 129.06483,75.809539 v 2.03625 h 6.10742 v -2.03625 z"
         transform="matrix(0.3466159,0,0,-1.0397464,123.72868,162.71363)" /><path
         id="path202"
         clip-path="url(#clipPath12-7-3-0)"
         style="fill:#7dc3ea;fill-opacity:1;stroke-width:0.440982"
         d="m 129.06483,75.809539 v 2.03625 h 6.10742 v -2.03625 z"
         transform="matrix(0.3466159,0,0,-1.0397464,123.72868,169.06731)" /><path
         id="path203"
         clip-path="url(#clipPath12-7-3-0)"
         style="fill:#7dc3ea;fill-opacity:1;stroke-width:0.440982"
         d="m 129.06483,75.809539 v 2.03625 h 6.10742 v -2.03625 z"
         transform="matrix(0.3466159,0,0,1.0397464,113.13149,2.9510559)" /><path
         id="path204"
         clip-path="url(#clipPath12-7-3-0)"
         style="fill:#7dc3ea;fill-opacity:1;stroke-width:0.440982"
         d="m 129.06483,75.809539 v 2.03625 h 6.10742 v -2.03625 z"
         transform="matrix(0.3466159,0,0,1.0397464,113.13149,9.3036715)" /></g></g><style
     type="text/css"
     id="style1">
	.st0{fill:#001E61;}
	.st1{fill:#E1241F;}
	.st2{fill:#EE8B22;}
	.st3{fill:#781134;}
	.st4{fill:#096C7B;}
	.st5{fill:#2D608D;}
	.st6{fill:#D62E1E;}
	.st7{fill:#406642;}
	.st8{fill:#082A59;}
	.st9{fill:#7DC3EA;}
	.st10{fill:#CE2E13;}
	.st11{fill:#FFFFFF;stroke:#FFFFFF;stroke-width:0.25;stroke-linecap:round;stroke-miterlimit:10;}
	.st12{fill:none;stroke:#FFFFFF;stroke-width:4;stroke-linecap:round;stroke-miterlimit:10;}
	.st13{fill:#FFFFFF;}
	.st14{fill:#FFFFFF;stroke:#000000;stroke-miterlimit:10;}
	.st15{fill:none;}
	.st16{fill:none;stroke:#E0040B;stroke-width:0.5;stroke-miterlimit:10;}
	.st17{fill:#FFFFFF;stroke:#E0040B;stroke-width:0.5;stroke-miterlimit:10;}
	.st18{fill:#E0040B;}
	.st19{fill:#001881;}
</style></svg>
