<?xml version="1.0" encoding="UTF-8" standalone="no"?>
<!-- Created with Inkscape (http://www.inkscape.org/) -->

<svg
   width="16.933332mm"
   height="16.933332mm"
   viewBox="0 0 16.933332 16.933332"
   version="1.1"
   id="svg1"
   xml:space="preserve"
   xmlns="http://www.w3.org/2000/svg"
   xmlns:svg="http://www.w3.org/2000/svg"><defs
     id="defs1"><clipPath
       clipPathUnits="userSpaceOnUse"
       id="clipPath12-7-3-0"><rect
         width="16.139584"
         height="16.139584"
         fill="#ffffff"
         transform="scale(-1,1)"
         id="rect13-4-8-6"
         x="-137.43471"
         y="67.744385"
         style="stroke-width:0.999998" /></clipPath></defs><g
     id="layer1"
     transform="translate(-80.089774,-150.88618)"><g
       id="g158"
       transform="matrix(-1,0,0,1,284.53217,73.411366)"><g
         id="g157"
         transform="matrix(0.99983087,0,0,-0.99950545,6.3606633,176.07356)"
         style="fill:#7dc3ea;fill-opacity:1;stroke-width:1.00033"><path
           id="path149"
           clip-path="url(#clipPath12-7-3-0)"
           style="fill:#7dc3ea;fill-opacity:1;stroke-width:0.311668"
           d="m 129.06483,75.809539 v 2.03625 h 6.10742 v -2.03625 z"
           transform="matrix(0.3466159,0,0,2.0805393,147.02834,-73.901726)" /><path
           id="path150"
           clip-path="url(#clipPath12-7-3-0)"
           style="fill:#7dc3ea;fill-opacity:1;stroke-width:0.311733"
           d="m 129.06483,75.809539 v 2.03625 h 6.10742 v -2.03625 z"
           transform="matrix(0.69329438,0,0,1.0397464,98.0501,9.2367982)" /><path
           id="path154"
           clip-path="url(#clipPath12-7-3-0)"
           style="fill:#7dc3ea;fill-opacity:1;stroke-width:0.311747"
           d="m 129.06483,75.809539 v 2.03625 h 6.10742 v -2.03625 z"
           transform="matrix(0.3466159,0,0,2.0794928,140.67717,-73.821326)" /><path
           id="path157"
           clip-path="url(#clipPath12-7-3-0)"
           style="fill:#7dc3ea;fill-opacity:1;stroke-width:0.311733"
           d="m 129.06483,75.809539 v 2.03625 h 6.10742 v -2.03625 z"
           transform="matrix(0.69329438,0,0,-1.0397464,98.0501,162.6457)" /></g><rect
         style="fill:none;fill-opacity:1;stroke-width:0.264583"
         id="rect157"
         width="16.933332"
         height="16.933332"
         x="187.50906"
         y="77.474815" /></g><g
       id="g181"
       transform="matrix(-1,0,0,1,269.6998,56.47594)"><g
         id="g180"
         transform="matrix(0.9988895,0,0,0.99933628,2.2922256,2.175485)"
         style="fill:#7dc3ea;fill-opacity:1;stroke-width:1.00089"><path
           id="path168"
           clip-path="url(#clipPath12-7-3-0)"
           style="fill:#7dc3ea;fill-opacity:1;stroke-width:0.311842"
           d="m 129.06483,75.809539 v 2.03625 h 6.10742 v -2.03625 z"
           transform="matrix(0.3466159,0,0,2.0805393,138.55999,-73.901712)" /><path
           id="path169"
           clip-path="url(#clipPath12-7-3-0)"
           style="fill:#7dc3ea;fill-opacity:1;stroke-width:0.441122"
           d="m 129.06483,75.809539 v 2.03625 h 6.10742 v -2.03625 z"
           transform="matrix(0.3466159,0,0,1.0397464,136.43129,9.2368192)" /><path
           id="path170"
           clip-path="url(#clipPath12-7-3-0)"
           style="fill:#7dc3ea;fill-opacity:1;stroke-width:0.311907"
           d="m 129.06483,75.809539 v 2.03625 h 6.10742 v -2.03625 z"
           transform="matrix(0.69329438,0,0,1.0397464,87.45292,11.356137)" /><path
           id="path171"
           clip-path="url(#clipPath12-7-3-0)"
           style="fill:#7dc3ea;fill-opacity:1;stroke-width:0.441122"
           d="m 129.06483,75.809539 v 2.03625 h 6.10742 v -2.03625 z"
           transform="matrix(0.3466159,0,0,1.0397464,130.07999,9.2357512)" /><path
           id="path172"
           clip-path="url(#clipPath12-7-3-0)"
           style="fill:#7dc3ea;fill-opacity:1;stroke-width:0.311921"
           d="m 129.06483,75.809539 v 2.03625 h 6.10742 v -2.03625 z"
           transform="matrix(0.3466159,0,0,2.0794928,127.9628,-73.821312)" /><path
           id="path176"
           clip-path="url(#clipPath12-7-3-0)"
           style="fill:#7dc3ea;fill-opacity:1;stroke-width:0.441122"
           d="m 129.06483,75.809539 v 2.03625 h 6.10742 v -2.03625 z"
           transform="matrix(0.3466159,0,0,-1.0397464,136.44281,162.6457)" /><path
           id="path179"
           clip-path="url(#clipPath12-7-3-0)"
           style="fill:#7dc3ea;fill-opacity:1;stroke-width:0.311907"
           d="m 129.06483,75.809539 v 2.03625 h 6.10742 v -2.03625 z"
           transform="matrix(0.69329438,0,0,-1.0397464,87.45292,160.52746)" /><path
           id="path180"
           clip-path="url(#clipPath12-7-3-0)"
           style="fill:#7dc3ea;fill-opacity:1;stroke-width:0.441122"
           d="m 129.06483,75.809539 v 2.03625 h 6.10742 v -2.03625 z"
           transform="matrix(0.3466159,0,0,-1.0397464,130.07999,162.64464)" /></g><rect
         style="fill:none;fill-opacity:1;stroke-width:0.264583"
         id="rect180"
         width="16.933332"
         height="16.933332"
         x="172.68382"
         y="77.476906" /></g></g><style
     type="text/css"
     id="style1">
	.st0{fill:#001E61;}
	.st1{fill:#E1241F;}
	.st2{fill:#EE8B22;}
	.st3{fill:#781134;}
	.st4{fill:#096C7B;}
	.st5{fill:#2D608D;}
	.st6{fill:#D62E1E;}
	.st7{fill:#406642;}
	.st8{fill:#082A59;}
	.st9{fill:#7DC3EA;}
	.st10{fill:#CE2E13;}
	.st11{fill:#FFFFFF;stroke:#FFFFFF;stroke-width:0.25;stroke-linecap:round;stroke-miterlimit:10;}
	.st12{fill:none;stroke:#FFFFFF;stroke-width:4;stroke-linecap:round;stroke-miterlimit:10;}
	.st13{fill:#FFFFFF;}
	.st14{fill:#FFFFFF;stroke:#000000;stroke-miterlimit:10;}
	.st15{fill:none;}
	.st16{fill:none;stroke:#E0040B;stroke-width:0.5;stroke-miterlimit:10;}
	.st17{fill:#FFFFFF;stroke:#E0040B;stroke-width:0.5;stroke-miterlimit:10;}
	.st18{fill:#E0040B;}
	.st19{fill:#001881;}
</style></svg>
