<?xml version="1.0" encoding="UTF-8" standalone="no"?>
<!-- Created with Inkscape (http://www.inkscape.org/) -->

<svg
   width="16.932816mm"
   height="16.932674mm"
   viewBox="0 0 16.932816 16.932674"
   version="1.1"
   id="svg1"
   xml:space="preserve"
   xmlns="http://www.w3.org/2000/svg"
   xmlns:svg="http://www.w3.org/2000/svg"><defs
     id="defs1"><clipPath
       clipPathUnits="userSpaceOnUse"
       id="clipPath12-7-3-0-4-7"><rect
         width="16.139584"
         height="16.139584"
         fill="#ffffff"
         transform="scale(-1,1)"
         id="rect13-4-8-6-8-6"
         x="-137.43471"
         y="67.744385"
         style="stroke-width:0.999998" /></clipPath></defs><g
     id="layer1"
     transform="translate(-125.00125,-100.08668)"><g
       id="g243"
       transform="translate(-14.873421,-28.497348)"
       style="fill:#7dc3ea;fill-opacity:1;stroke-width:0.961783"><path
         id="path235"
         clip-path="url(#clipPath12-7-3-0-4-7)"
         style="fill:#7dc3ea;fill-opacity:1;stroke-width:0.440819"
         d="m 129.06483,75.809539 v 2.03625 h 6.10742 v -2.03625 z"
         transform="matrix(0.34657297,0,0,-1.0394623,101.49424,209.50179)" /><path
         id="path236"
         clip-path="url(#clipPath12-7-3-0-4-7)"
         style="fill:#7dc3ea;fill-opacity:1;stroke-width:0.311715"
         d="m 129.06483,75.809539 v 2.03625 h 6.10742 v -2.03625 z"
         transform="matrix(0.34657297,0,0,-2.0788076,99.377569,294.64367)" /><path
         id="path237"
         clip-path="url(#clipPath12-7-3-0-4-7)"
         style="fill:#7dc3ea;fill-opacity:1;stroke-width:0.311714"
         d="m 129.06483,75.809539 v 2.03625 h 6.10742 v -2.03625 z"
         transform="matrix(0.34657297,0,0,-2.0788129,97.26099,298.87729)" /><path
         id="path238"
         clip-path="none"
         style="fill:#7dc3ea;fill-opacity:1;stroke-width:0.311706"
         d="m 129.06474,77.845695 v -1.018154 -1.017904 h 6.10742 24.42968 v 1.017904 h -24.42968 v 1.018154 z"
         transform="matrix(0.34657297,0,0,-2.078927,95.144318,303.1194)" /><path
         id="path239"
         clip-path="url(#clipPath12-7-3-0-4-7)"
         style="fill:#7dc3ea;fill-opacity:1;stroke-width:0.440819"
         d="m 129.06483,75.809539 v 2.03625 h 6.10742 v -2.03625 z"
         transform="matrix(0,0.34657297,1.0394623,0,71.656653,88.086685)" /><path
         id="path241"
         clip-path="none"
         style="fill:#7dc3ea;fill-opacity:1;stroke-width:0.253049"
         d="m 116.85064,76.503875 h 12.21484 v -0.694278 h 6.10742 v 0.694278 h 6.10742 v 0.670851 h -6.10742 v 0.671016 h -6.10742 v -0.671016 h -12.21484 z"
         transform="matrix(0,0.34657297,3.1544237,0,-88.750969,94.436608)" /><path
         id="path243"
         clip-path="url(#clipPath12-7-3-0-4-7)"
         style="fill:#7dc3ea;fill-opacity:1;stroke-width:0.311706"
         d="m 129.06483,75.809539 v 2.03625 h 6.10742 v -2.03625 z"
         transform="matrix(0.34657297,0,0,-2.0789246,101.49424,290.41955)" /></g></g><style
     type="text/css"
     id="style1">
	.st0{fill:#001E61;}
	.st1{fill:#E1241F;}
	.st2{fill:#EE8B22;}
	.st3{fill:#781134;}
	.st4{fill:#096C7B;}
	.st5{fill:#2D608D;}
	.st6{fill:#D62E1E;}
	.st7{fill:#406642;}
	.st8{fill:#082A59;}
	.st9{fill:#7DC3EA;}
	.st10{fill:#CE2E13;}
	.st11{fill:#FFFFFF;stroke:#FFFFFF;stroke-width:0.25;stroke-linecap:round;stroke-miterlimit:10;}
	.st12{fill:none;stroke:#FFFFFF;stroke-width:4;stroke-linecap:round;stroke-miterlimit:10;}
	.st13{fill:#FFFFFF;}
	.st14{fill:#FFFFFF;stroke:#000000;stroke-miterlimit:10;}
	.st15{fill:none;}
	.st16{fill:none;stroke:#E0040B;stroke-width:0.5;stroke-miterlimit:10;}
	.st17{fill:#FFFFFF;stroke:#E0040B;stroke-width:0.5;stroke-miterlimit:10;}
	.st18{fill:#E0040B;}
	.st19{fill:#001881;}
</style></svg>
