<?xml version="1.0" encoding="UTF-8" standalone="no"?>
<!-- Created with Inkscape (http://www.inkscape.org/) -->

<svg
   width="16.932816mm"
   height="16.932674mm"
   viewBox="0 0 16.932816 16.932674"
   version="1.1"
   id="svg1"
   xml:space="preserve"
   xmlns="http://www.w3.org/2000/svg"
   xmlns:svg="http://www.w3.org/2000/svg"><defs
     id="defs1"><clipPath
       clipPathUnits="userSpaceOnUse"
       id="clipPath12"><rect
         width="16.139584"
         height="16.139584"
         fill="#ffffff"
         transform="scale(-1,1)"
         id="rect13"
         x="-137.43471"
         y="67.744385"
         style="stroke-width:0.999998" /></clipPath><clipPath
       clipPathUnits="userSpaceOnUse"
       id="clipPath12-7"><rect
         width="16.139584"
         height="16.139584"
         fill="#ffffff"
         transform="scale(-1,1)"
         id="rect13-4"
         x="-137.43471"
         y="67.744385"
         style="stroke-width:0.999998" /></clipPath><clipPath
       clipPathUnits="userSpaceOnUse"
       id="clipPath12-7-3-0-4-7"><rect
         width="16.139584"
         height="16.139584"
         fill="#ffffff"
         transform="scale(-1,1)"
         id="rect13-4-8-6-8-6"
         x="-137.43471"
         y="67.744385"
         style="stroke-width:0.999998" /></clipPath></defs><g
     id="layer1"
     transform="translate(-125.00125,-83.153506)"><g
       id="g231"
       transform="matrix(-0.99999999,0,0,0.99999999,281.80873,-45.430517)"
       style="fill:#7dc3ea;fill-opacity:1;stroke-width:0.961783"><path
         id="path224"
         clip-path="url(#clipPath12-7-3-0-4-7)"
         style="fill:#7dc3ea;fill-opacity:1;stroke-width:0.440819"
         d="m 129.06483,75.809539 v 2.03625 h 6.10742 v -2.03625 z"
         transform="matrix(0.34657297,0,0,-1.0394623,101.49424,209.50179)" /><path
         id="path225"
         clip-path="url(#clipPath12-7-3-0-4-7)"
         style="fill:#7dc3ea;fill-opacity:1;stroke-width:0.311715"
         d="m 129.06483,75.809539 v 2.03625 h 6.10742 v -2.03625 z"
         transform="matrix(0.34657297,0,0,-2.0788076,99.377569,294.64367)" /><path
         id="path227"
         clip-path="url(#clipPath12-7-3-0-4-7)"
         style="fill:#7dc3ea;fill-opacity:1;stroke-width:0.311714"
         d="m 129.06483,75.809539 v 2.03625 h 6.10742 v -2.03625 z"
         transform="matrix(0.34657297,0,0,-2.0788129,97.26099,298.87729)" /><path
         id="path228"
         clip-path="none"
         style="fill:#7dc3ea;fill-opacity:1;stroke-width:0.311706"
         d="m 129.06474,77.845695 v -1.018154 -1.017904 h 6.10742 24.42968 v 1.017904 h -24.42968 v 1.018154 z"
         transform="matrix(0.34657297,0,0,-2.078927,95.144318,303.1194)" /><path
         id="path229"
         clip-path="url(#clipPath12-7-3-0-4-7)"
         style="fill:#7dc3ea;fill-opacity:1;stroke-width:0.440819"
         d="m 129.06483,75.809539 v 2.03625 h 6.10742 v -2.03625 z"
         transform="matrix(0,0.34657297,1.0394623,0,71.656653,88.086685)" /><path
         id="path230"
         clip-path="none"
         style="fill:#7dc3ea;fill-opacity:1;stroke-width:0.253049"
         d="m 116.85064,76.503875 h 12.21484 v -0.694278 h 6.10742 v 0.694278 h 6.10742 v 0.670851 h -6.10742 v 0.671016 h -6.10742 v -0.671016 h -12.21484 z"
         transform="matrix(0,0.34657297,3.1544237,0,-88.750969,94.436608)" /><path
         id="path231"
         clip-path="url(#clipPath12-7-3-0-4-7)"
         style="fill:#7dc3ea;fill-opacity:1;stroke-width:0.311706"
         d="m 129.06483,75.809539 v 2.03625 h 6.10742 v -2.03625 z"
         transform="matrix(0.34657297,0,0,-2.0789246,101.49424,290.41955)" /></g><g
       id="g234"
       transform="matrix(1.0397258,0,0,1.0397464,-38.658794,10.050171)"
       style="fill:#7dc3ea;fill-opacity:1;stroke-width:0.961787"><path
         id="path232"
         clip-path="url(#clipPath12)"
         style="fill:#7dc3ea;fill-opacity:1;stroke-width:0.254472"
         d="m 131.10072,71.738403 v 4.071586 h -2.03605 v 2.035535 h 2.03605 v 2.036051 h 2.03554 v -2.036051 h 2.03605 v -2.035535 h -2.03605 v -4.071586 z"
         transform="translate(12.055916,2.6415531)" /><rect
         style="fill:#7dc3ea;fill-opacity:1;stroke-width:0.311663"
         id="rect232"
         width="6.1073494"
         height="2.0357833"
         x="129.06477"
         y="75.809761"
         clip-path="url(#clipPath12)"
         transform="matrix(0.66666219,0,0,1,59.149665,-3.4658001)" /><rect
         style="fill:#7dc3ea;fill-opacity:1;stroke-width:0.311663"
         id="rect233"
         width="6.1073494"
         height="2.0357833"
         x="129.06477"
         y="75.809761"
         clip-path="url(#clipPath12-7)"
         transform="matrix(0.66666219,0,0,1,63.221205,-5.5015834)" /><path
         id="path234"
         clip-path="none"
         style="fill:#7dc3ea;fill-opacity:1;stroke-width:0.155831"
         d="m 129.06405,75.809784 v 1.781289 H 86.312888 v 0.254442 h 48.859352 v -2.035731 z"
         transform="matrix(0.33333116,0,0,7.9999932,112.34981,-536.16939)" /></g></g><style
     type="text/css"
     id="style1">
	.st0{fill:#001E61;}
	.st1{fill:#E1241F;}
	.st2{fill:#EE8B22;}
	.st3{fill:#781134;}
	.st4{fill:#096C7B;}
	.st5{fill:#2D608D;}
	.st6{fill:#D62E1E;}
	.st7{fill:#406642;}
	.st8{fill:#082A59;}
	.st9{fill:#7DC3EA;}
	.st10{fill:#CE2E13;}
	.st11{fill:#FFFFFF;stroke:#FFFFFF;stroke-width:0.25;stroke-linecap:round;stroke-miterlimit:10;}
	.st12{fill:none;stroke:#FFFFFF;stroke-width:4;stroke-linecap:round;stroke-miterlimit:10;}
	.st13{fill:#FFFFFF;}
	.st14{fill:#FFFFFF;stroke:#000000;stroke-miterlimit:10;}
	.st15{fill:none;}
	.st16{fill:none;stroke:#E0040B;stroke-width:0.5;stroke-miterlimit:10;}
	.st17{fill:#FFFFFF;stroke:#E0040B;stroke-width:0.5;stroke-miterlimit:10;}
	.st18{fill:#E0040B;}
	.st19{fill:#001881;}
</style></svg>
