<?xml version="1.0" encoding="UTF-8" standalone="no"?>
<!-- Created with Inkscape (http://www.inkscape.org/) -->

<svg
   width="16.933332mm"
   height="16.933336mm"
   viewBox="0 0 16.933332 16.933336"
   version="1.1"
   id="svg1"
   xml:space="preserve"
   xmlns="http://www.w3.org/2000/svg"
   xmlns:svg="http://www.w3.org/2000/svg"><defs
     id="defs1"><clipPath
       clipPathUnits="userSpaceOnUse"
       id="clipPath12-7-3-0"><rect
         width="16.139584"
         height="16.139584"
         fill="#ffffff"
         transform="scale(-1,1)"
         id="rect13-4-8-6"
         x="-137.43471"
         y="67.744385"
         style="stroke-width:0.999998" /></clipPath></defs><g
     id="layer1"
     transform="translate(-80.082637,-32.351783)"><g
       id="g170"
       transform="matrix(-0.99999999,0,0,0.99999999,269.69979,-45.125122)"><g
         id="g132"
         transform="matrix(0.9988895,0,0,0.99933628,2.2922256,2.175485)"
         style="fill:#082a59;fill-opacity:1;stroke-width:1.00089"><path
           id="path76"
           clip-path="url(#clipPath12-7-3-0)"
           style="fill:#082a59;fill-opacity:1;stroke-width:0.311842"
           d="m 129.06483,75.809539 v 2.03625 h 6.10742 v -2.03625 z"
           transform="matrix(0.3466159,0,0,2.0805393,138.55999,-73.901712)" /><path
           id="path78"
           clip-path="url(#clipPath12-7-3-0)"
           style="fill:#082a59;fill-opacity:1;stroke-width:0.441122"
           d="m 129.06483,75.809539 v 2.03625 h 6.10742 v -2.03625 z"
           transform="matrix(0.3466159,0,0,1.0397464,136.43129,9.2368192)" /><path
           id="path79"
           clip-path="url(#clipPath12-7-3-0)"
           style="fill:#082a59;fill-opacity:1;stroke-width:0.311907"
           d="m 129.06483,75.809539 v 2.03625 h 6.10742 v -2.03625 z"
           transform="matrix(0.69329438,0,0,1.0397464,87.45292,11.356137)" /><path
           id="path81"
           clip-path="url(#clipPath12-7-3-0)"
           style="fill:#082a59;fill-opacity:1;stroke-width:0.441122"
           d="m 129.06483,75.809539 v 2.03625 h 6.10742 v -2.03625 z"
           transform="matrix(0.3466159,0,0,1.0397464,130.07999,9.2357512)" /><path
           id="path82"
           clip-path="url(#clipPath12-7-3-0)"
           style="fill:#082a59;fill-opacity:1;stroke-width:0.311921"
           d="m 129.06483,75.809539 v 2.03625 h 6.10742 v -2.03625 z"
           transform="matrix(0.3466159,0,0,2.0794928,127.9628,-73.821312)" /><path
           id="path83"
           clip-path="url(#clipPath12-7-3-0)"
           style="fill:#082a59;fill-opacity:1;stroke-width:0.441122"
           d="m 129.06483,75.809539 v 2.03625 h 6.10742 v -2.03625 z"
           transform="matrix(0.3466159,0,0,-1.0397464,136.44281,162.6457)" /><path
           id="path85"
           clip-path="url(#clipPath12-7-3-0)"
           style="fill:#082a59;fill-opacity:1;stroke-width:0.311907"
           d="m 129.06483,75.809539 v 2.03625 h 6.10742 v -2.03625 z"
           transform="matrix(0.69329438,0,0,-1.0397464,87.45292,160.52746)" /><path
           id="path87"
           clip-path="url(#clipPath12-7-3-0)"
           style="fill:#082a59;fill-opacity:1;stroke-width:0.441122"
           d="m 129.06483,75.809539 v 2.03625 h 6.10742 v -2.03625 z"
           transform="matrix(0.3466159,0,0,-1.0397464,130.07999,162.64464)" /></g><rect
         style="fill:none;fill-opacity:1;stroke-width:0.264583"
         id="rect169"
         width="16.933332"
         height="16.933332"
         x="172.68382"
         y="77.476906" /></g><g
       id="g131"
       transform="matrix(-0.99913586,0,0,0.99972675,252.62605,-62.098693)"
       style="fill:#082a59;fill-opacity:1;stroke-width:1.00057"><path
         id="path120"
         clip-path="url(#clipPath12-7-3-0)"
         style="fill:#082a59;fill-opacity:1;stroke-width:0.311743"
         d="m 129.06483,75.809539 v 2.03625 h 6.10742 v -2.03625 z"
         transform="matrix(0.3466159,0,0,2.0805393,125.84561,-73.833791)" /><path
         id="path121"
         clip-path="url(#clipPath12-7-3-0)"
         style="fill:#082a59;fill-opacity:1;stroke-width:0.440982"
         d="m 129.06483,75.809539 v 2.03625 h 6.10742 v -2.03625 z"
         transform="matrix(0.3466159,0,0,1.0397464,121.59998,11.417096)" /><path
         id="path122"
         clip-path="url(#clipPath12-7-3-0)"
         style="fill:#082a59;fill-opacity:1;stroke-width:0.311807"
         d="m 129.06483,75.809539 v 2.03625 h 6.10742 v -2.03625 z"
         transform="matrix(0.69329438,0,0,1.0397464,72.621607,13.536414)" /><path
         id="path123"
         clip-path="url(#clipPath12-7-3-0)"
         style="fill:#082a59;fill-opacity:1;stroke-width:0.440982"
         d="m 129.06483,75.809539 v 2.03625 h 6.10742 v -2.03625 z"
         transform="matrix(0.3466159,0,0,1.0397464,115.24868,11.416028)" /><path
         id="path124"
         clip-path="url(#clipPath12-7-3-0)"
         style="fill:#082a59;fill-opacity:1;stroke-width:0.311821"
         d="m 129.06483,75.809539 v 2.03625 h 6.10742 v -2.03625 z"
         transform="matrix(0.3466159,0,0,2.0794928,111.01456,-73.753391)" /><path
         id="path125"
         clip-path="url(#clipPath12-7-3-0)"
         style="fill:#082a59;fill-opacity:1;stroke-width:0.440982"
         d="m 129.06483,75.809539 v 2.03625 h 6.10742 v -2.03625 z"
         transform="matrix(0.3466159,0,0,-1.0397464,121.6115,160.59645)" /><path
         id="path126"
         clip-path="url(#clipPath12-7-3-0)"
         style="fill:#082a59;fill-opacity:1;stroke-width:0.311807"
         d="m 129.06483,75.809539 v 2.03625 h 6.10742 v -2.03625 z"
         transform="matrix(0.69329438,0,0,-1.0397464,72.621607,158.47821)" /><path
         id="path127"
         clip-path="url(#clipPath12-7-3-0)"
         style="fill:#082a59;fill-opacity:1;stroke-width:0.440982"
         d="m 129.06483,75.809539 v 2.03625 h 6.10742 v -2.03625 z"
         transform="matrix(0.3466159,0,0,-1.0397464,115.24868,160.59539)" /><path
         id="path128"
         clip-path="url(#clipPath12-7-3-0)"
         style="fill:#082a59;fill-opacity:1;stroke-width:0.440982"
         d="m 129.06483,75.809539 v 2.03625 h 6.10742 v -2.03625 z"
         transform="matrix(0.3466159,0,0,-1.0397464,123.72868,162.71363)" /><path
         id="path129"
         clip-path="url(#clipPath12-7-3-0)"
         style="fill:#082a59;fill-opacity:1;stroke-width:0.440982"
         d="m 129.06483,75.809539 v 2.03625 h 6.10742 v -2.03625 z"
         transform="matrix(0.3466159,0,0,-1.0397464,123.72868,169.06731)" /><path
         id="path130"
         clip-path="url(#clipPath12-7-3-0)"
         style="fill:#082a59;fill-opacity:1;stroke-width:0.440982"
         d="m 129.06483,75.809539 v 2.03625 h 6.10742 v -2.03625 z"
         transform="matrix(0.3466159,0,0,1.0397464,113.13149,2.9510559)" /><path
         id="path131"
         clip-path="url(#clipPath12-7-3-0)"
         style="fill:#082a59;fill-opacity:1;stroke-width:0.440982"
         d="m 129.06483,75.809539 v 2.03625 h 6.10742 v -2.03625 z"
         transform="matrix(0.3466159,0,0,1.0397464,113.13149,9.3036715)" /></g></g><style
     type="text/css"
     id="style1">
	.st0{fill:#001E61;}
	.st1{fill:#E1241F;}
	.st2{fill:#EE8B22;}
	.st3{fill:#781134;}
	.st4{fill:#096C7B;}
	.st5{fill:#2D608D;}
	.st6{fill:#D62E1E;}
	.st7{fill:#406642;}
	.st8{fill:#082A59;}
	.st9{fill:#7DC3EA;}
	.st10{fill:#CE2E13;}
	.st11{fill:#FFFFFF;stroke:#FFFFFF;stroke-width:0.25;stroke-linecap:round;stroke-miterlimit:10;}
	.st12{fill:none;stroke:#FFFFFF;stroke-width:4;stroke-linecap:round;stroke-miterlimit:10;}
	.st13{fill:#FFFFFF;}
	.st14{fill:#FFFFFF;stroke:#000000;stroke-miterlimit:10;}
	.st15{fill:none;}
	.st16{fill:none;stroke:#E0040B;stroke-width:0.5;stroke-miterlimit:10;}
	.st17{fill:#FFFFFF;stroke:#E0040B;stroke-width:0.5;stroke-miterlimit:10;}
	.st18{fill:#E0040B;}
	.st19{fill:#001881;}
</style></svg>
