<?xml version="1.0" encoding="UTF-8" standalone="no"?>
<!-- Created with Inkscape (http://www.inkscape.org/) -->

<svg
   width="16.933334mm"
   height="16.933334mm"
   viewBox="0 0 16.933334 16.933334"
   version="1.1"
   id="svg1"
   xml:space="preserve"
   xmlns="http://www.w3.org/2000/svg"
   xmlns:svg="http://www.w3.org/2000/svg"><defs
     id="defs1"><clipPath
       clipPathUnits="userSpaceOnUse"
       id="clipPath12-7-3-0-4"><rect
         width="16.139584"
         height="16.139584"
         fill="#ffffff"
         transform="scale(-1,1)"
         id="rect13-4-8-6-8"
         x="-137.43471"
         y="67.744385"
         style="stroke-width:0.999998" /></clipPath><clipPath
       clipPathUnits="userSpaceOnUse"
       id="clipPath12-7-3-0-4-1"><rect
         width="16.139584"
         height="16.139584"
         fill="#ffffff"
         transform="scale(-1,1)"
         id="rect13-4-8-6-8-7"
         x="-137.43471"
         y="67.744385"
         style="stroke-width:0.999998" /></clipPath></defs><g
     id="layer1"
     transform="translate(-185.47412,-124.89899)"><g
       id="g342"><g
         id="g341"
         style="fill:#d62e1e;fill-opacity:1;stroke-width:0.999616"
         transform="matrix(1.0007407,0,0,1.0000272,-0.83365889,19.04713)"><path
           id="path330"
           clip-path="url(#clipPath12-7-3-0-4)"
           style="fill:#d62e1e;fill-opacity:1;stroke-width:0.440813"
           d="m 129.06483,75.809539 v 2.03625 h 6.10742 v -2.03625 z"
           transform="matrix(0.34631638,0,0,-1.0394623,143.58772,188.88335)" /><path
           id="path331"
           clip-path="url(#clipPath12-7-3-0-4)"
           style="fill:#d62e1e;fill-opacity:1;stroke-width:0.440813"
           d="m 129.06483,75.809539 v 2.03625 h 6.10742 v -2.03625 z"
           transform="matrix(0.34631638,0,0,-1.0394623,145.70282,190.99996)" /><path
           id="path332"
           clip-path="url(#clipPath12-7-3-0-4)"
           style="fill:#d62e1e;fill-opacity:1;stroke-width:0.440813"
           d="m 129.06483,75.809539 v 2.03625 h 6.10742 v -2.03625 z"
           transform="matrix(0.34631638,0,0,-1.0394623,152.04812,190.99996)" /><path
           id="path333"
           clip-path="url(#clipPath12-7-3-0-4)"
           style="fill:#d62e1e;fill-opacity:1;stroke-width:0.440813"
           d="m 129.06483,75.809539 v 2.03625 h 6.10742 v -2.03625 z"
           transform="matrix(0.34631638,0,0,-1.0394623,154.16322,188.88335)" /><path
           id="path334"
           clip-path="url(#clipPath12-7-3-0-4)"
           style="fill:#d62e1e;fill-opacity:1;stroke-width:0.440813"
           d="m 122.95798,77.845761 v -4.072619 h 12.21493 v 4.072619 z"
           transform="matrix(0.34631638,0,0,-1.0394623,149.93302,193.11657)" /><path
           id="path336"
           clip-path="url(#clipPath12-7-3-0-4)"
           style="fill:#d62e1e;fill-opacity:1;stroke-width:0.440813"
           d="m 129.06483,75.809539 v 2.03625 h 6.10742 v -2.03625 z"
           transform="matrix(0.34631638,0,0,-1.0394623,145.70282,197.34978)" /><path
           id="path337"
           clip-path="url(#clipPath12-7-3-0-4)"
           style="fill:#d62e1e;fill-opacity:1;stroke-width:0.440813"
           d="m 129.06483,75.809539 v 2.03625 h 6.10742 v -2.03625 z"
           transform="matrix(0.34631638,0,0,-1.0394623,143.58772,199.46639)" /><path
           id="path338"
           clip-path="url(#clipPath12-7-3-0-4-1)"
           style="fill:#d62e1e;fill-opacity:1;stroke-width:0.440813"
           d="m 129.06483,75.809539 v 2.03625 h 6.10742 v -2.03625 z"
           transform="matrix(0.34631638,0,0,-1.0394623,152.04812,197.34979)" /><path
           id="path339"
           clip-path="url(#clipPath12-7-3-0-4-1)"
           style="fill:#d62e1e;fill-opacity:1;stroke-width:0.440813"
           d="m 129.06483,75.809539 v 2.03625 h 6.10742 v -2.03625 z"
           transform="matrix(0.34631638,0,0,-1.0394623,154.16322,199.4664)" /></g><rect
         style="fill:none;fill-opacity:1;stroke-width:0.264583"
         id="rect341"
         width="16.933334"
         height="16.933334"
         x="185.47412"
         y="124.89899" /></g></g><style
     type="text/css"
     id="style1">
	.st0{fill:#001E61;}
	.st1{fill:#E1241F;}
	.st2{fill:#EE8B22;}
	.st3{fill:#781134;}
	.st4{fill:#096C7B;}
	.st5{fill:#2D608D;}
	.st6{fill:#D62E1E;}
	.st7{fill:#406642;}
	.st8{fill:#082A59;}
	.st9{fill:#7DC3EA;}
	.st10{fill:#CE2E13;}
	.st11{fill:#FFFFFF;stroke:#FFFFFF;stroke-width:0.25;stroke-linecap:round;stroke-miterlimit:10;}
	.st12{fill:none;stroke:#FFFFFF;stroke-width:4;stroke-linecap:round;stroke-miterlimit:10;}
	.st13{fill:#FFFFFF;}
	.st14{fill:#FFFFFF;stroke:#000000;stroke-miterlimit:10;}
	.st15{fill:none;}
	.st16{fill:none;stroke:#E0040B;stroke-width:0.5;stroke-miterlimit:10;}
	.st17{fill:#FFFFFF;stroke:#E0040B;stroke-width:0.5;stroke-miterlimit:10;}
	.st18{fill:#E0040B;}
	.st19{fill:#001881;}
</style></svg>
