<?xml version="1.0" encoding="UTF-8" standalone="no"?>
<!-- Created with Inkscape (http://www.inkscape.org/) -->

<svg
   width="33.866562mm"
   height="23.283333mm"
   viewBox="0 0 33.866562 23.283333"
   version="1.1"
   id="svg1"
   xml:space="preserve"
   xmlns="http://www.w3.org/2000/svg"
   xmlns:svg="http://www.w3.org/2000/svg"><defs
     id="defs1"><clipPath
       clipPathUnits="userSpaceOnUse"
       id="clipPath12-7-3"><rect
         width="16.139584"
         height="16.139584"
         fill="#ffffff"
         transform="scale(-1,1)"
         id="rect13-4-8"
         x="-137.43471"
         y="67.744385"
         style="stroke-width:0.999998" /></clipPath></defs><g
     id="layer1"
     transform="translate(-22.924365,-191.09998)"><g
       id="g160"
       transform="matrix(1.0011611,0,0,0.99990466,-78.745591,60.607623)"
       style="stroke-width:0.999468"><path
         id="path152"
         clip-path="none"
         style="fill:#d62e1e;fill-opacity:1;stroke-width:0.264442"
         d="m 131.15685,136.82611 v 8.46873 h -2.10581 v 2.11718 h 2.10581 v 2.11718 h 2.11667 v -2.11718 h 2.10581 v -2.11718 h -2.10581 v -8.46873 z" /><path
         id="path153"
         clip-path="none"
         style="fill:#d62e1e;fill-opacity:1;stroke-width:0.440496"
         d="m 80.19932,73.773337 v 2.036187 h 0.0015 l -0.0015,9.95e-4 -6.107027,-9.95e-4 V 90.062838 H 141.28001 V 75.809524 h -6.10851 v -2.036187 h -6.10818 l 0.003,4.072375 h 6.10554 V 88.027147 H 80.19932 V 77.845712 h 6.107027 c -8.62e-4,-0.02613 6.29e-4,-4.072375 6.29e-4,-4.072375 z"
         transform="matrix(0.3466159,0,0,1.0397464,75.870477,60.147843)" /><path
         id="path155"
         clip-path="url(#clipPath12-7-3)"
         style="fill:#d62e1e;fill-opacity:1;stroke-width:0.440496"
         d="m 129.06483,75.809539 v 2.03625 h 6.10742 v -2.03625 z"
         transform="matrix(0.3466159,0,0,-1.0397464,73.753026,215.67636)" /><path
         id="path156"
         clip-path="url(#clipPath12-7-3)"
         style="fill:#d62e1e;fill-opacity:1;stroke-width:0.440496"
         d="m 129.06483,75.809539 v 2.03625 h 6.10742 v -2.03625 z"
         transform="matrix(0.3466159,0,0,-1.0397464,71.636097,213.55918)" /><path
         id="path158"
         clip-path="url(#clipPath12-7-3)"
         style="fill:#d62e1e;fill-opacity:1;stroke-width:0.2543"
         d="m 129.06483,75.809539 v 2.03625 h 6.10742 v -2.03625 z"
         transform="matrix(1.0400145,0,0,-1.0397464,-24.209079,211.44468)" /><path
         id="path159"
         clip-path="url(#clipPath12-7-3)"
         style="fill:#d62e1e;fill-opacity:1;stroke-width:0.440496"
         d="m 129.06483,75.809539 v 2.03625 h 6.10742 v -2.03625 z"
         transform="matrix(0.3466159,0,0,-1.0397464,61.049925,215.67636)" /><path
         id="path164"
         clip-path="url(#clipPath12-7-3)"
         style="fill:#d62e1e;fill-opacity:1;stroke-width:0.196968"
         d="m 129.06483,75.809539 v 2.03625 h 6.10742 v -2.03625 z"
         transform="matrix(1.7335642,0,0,-1.0397464,-115.83991,224.11753)" /><path
         id="path165"
         clip-path="url(#clipPath12-7-3)"
         style="fill:#d62e1e;fill-opacity:1;stroke-width:0.440496"
         d="m 129.06483,75.809539 v 2.03625 h 6.10742 v -2.03625 z"
         transform="matrix(0.3466159,0,0,-1.0397464,73.753033,222.00035)" /><path
         id="path166"
         clip-path="url(#clipPath12-7-3)"
         style="fill:#d62e1e;fill-opacity:1;stroke-width:0.440496"
         d="m 129.06483,75.809539 v 2.03625 h 6.10742 v -2.03625 z"
         transform="matrix(0.3466159,0,0,-1.0397464,61.049408,222.00035)" /><path
         id="path167"
         clip-path="url(#clipPath12-7-3)"
         style="fill:#d62e1e;fill-opacity:1;stroke-width:0.440496"
         d="m 129.06483,75.809539 v 2.03625 h 6.10742 v -2.03625 z"
         transform="matrix(0.3466159,0,0,-1.0397464,63.167363,213.55918)" /></g></g><style
     type="text/css"
     id="style1">
	.st0{fill:#001E61;}
	.st1{fill:#E1241F;}
	.st2{fill:#EE8B22;}
	.st3{fill:#781134;}
	.st4{fill:#096C7B;}
	.st5{fill:#2D608D;}
	.st6{fill:#D62E1E;}
	.st7{fill:#406642;}
	.st8{fill:#082A59;}
	.st9{fill:#7DC3EA;}
	.st10{fill:#CE2E13;}
	.st11{fill:#FFFFFF;stroke:#FFFFFF;stroke-width:0.25;stroke-linecap:round;stroke-miterlimit:10;}
	.st12{fill:none;stroke:#FFFFFF;stroke-width:4;stroke-linecap:round;stroke-miterlimit:10;}
	.st13{fill:#FFFFFF;}
	.st14{fill:#FFFFFF;stroke:#000000;stroke-miterlimit:10;}
	.st15{fill:none;}
	.st16{fill:none;stroke:#E0040B;stroke-width:0.5;stroke-miterlimit:10;}
	.st17{fill:#FFFFFF;stroke:#E0040B;stroke-width:0.5;stroke-miterlimit:10;}
	.st18{fill:#E0040B;}
	.st19{fill:#001881;}
</style></svg>
