<?xml version="1.0" encoding="UTF-8" standalone="no"?>
<!-- Created with Inkscape (http://www.inkscape.org/) -->

<svg
   width="33.866669mm"
   height="23.283344mm"
   viewBox="0 0 33.866669 23.283344"
   version="1.1"
   id="svg1"
   xml:space="preserve"
   xmlns="http://www.w3.org/2000/svg"
   xmlns:svg="http://www.w3.org/2000/svg"><defs
     id="defs1"><clipPath
       clipPathUnits="userSpaceOnUse"
       id="clipPath12-7-3"><rect
         width="16.139584"
         height="16.139584"
         fill="#ffffff"
         transform="scale(-1,1)"
         id="rect13-4-8"
         x="-137.43471"
         y="67.744385"
         style="stroke-width:0.999998" /></clipPath></defs><g
     id="layer1"
     transform="translate(-56.790928,-191.09997)"><g
       id="g168"
       transform="translate(51.414433,56.665632)"><g
         id="g70"
         transform="matrix(1.0011611,0,0,0.99978647,-96.293358,3.9599119)"
         style="stroke-width:0.999527"><path
           id="path28"
           clip-path="none"
           style="fill:#d62e1e;fill-opacity:1;stroke-width:0.179843"
           d="m 129.06495,75.809506 v 1.357499 h -6.07536 v 0.339375 h 6.07536 v 0.339375 h 6.10666 V 77.50638 h 6.07535 v -0.339375 h -6.07535 v -1.357499 z"
           transform="matrix(0.3466159,0,0,6.2384794,86.42089,-333.96571)" /><path
           id="path44"
           clip-path="none"
           style="fill:#d62e1e;fill-opacity:1;stroke-width:0.440522"
           d="m 80.19866,73.773585 v 2.035753 h 0.0015 l -0.0015,9.94e-4 -6.106664,-9.94e-4 V 90.063086 H 141.2802 V 75.809338 h -6.10815 v -2.035753 z m 6.108154,2.035753 h 42.758576 v 2.036249 h 6.10666 V 88.027334 H 80.19866 V 77.845587 h 6.108154 z"
           transform="matrix(0.3466159,0,0,1.0397464,75.870477,60.147843)" /><path
           id="path62"
           clip-path="url(#clipPath12-7-3)"
           style="fill:#d62e1e;fill-opacity:1;stroke-width:0.440522"
           d="m 129.06483,75.809539 v 2.03625 h 6.10742 v -2.03625 z"
           transform="matrix(0.3466159,0,0,1.0397464,73.753033,62.265027)" /><path
           id="path63"
           clip-path="url(#clipPath12-7-3)"
           style="fill:#d62e1e;fill-opacity:1;stroke-width:0.440522"
           d="m 129.06483,75.809539 v 2.03625 h 6.10742 v -2.03625 z"
           transform="matrix(0.3466159,0,0,1.0397464,71.635849,64.382211)" /><path
           id="path66"
           clip-path="url(#clipPath12-7-3)"
           style="fill:#d62e1e;fill-opacity:1;stroke-width:0.254312"
           d="m 129.06483,75.809539 v 2.03625 h 6.10742 v -2.03625 z"
           transform="matrix(1.0400387,0,0,1.0397464,-24.212206,66.499395)" /><path
           id="path67"
           clip-path="url(#clipPath12-7-3)"
           style="fill:#d62e1e;fill-opacity:1;stroke-width:0.440522"
           d="m 129.06483,75.809539 v 2.03625 h 6.10742 v -2.03625 z"
           transform="matrix(0.3466159,0,0,1.0397464,63.167246,64.382211)" /><path
           id="path68"
           clip-path="url(#clipPath12-7-3)"
           style="fill:#d62e1e;fill-opacity:1;stroke-width:0.440522"
           d="m 129.06483,75.809539 v 2.03625 h 6.10742 v -2.03625 z"
           transform="matrix(0.3466159,0,0,1.0397464,61.050056,62.265027)" /></g><rect
         style="fill:none;fill-opacity:1;stroke-width:0.264583"
         id="rect168"
         width="33.866566"
         height="23.283335"
         x="5.3765464"
         y="134.43434" /></g></g><style
     type="text/css"
     id="style1">
	.st0{fill:#001E61;}
	.st1{fill:#E1241F;}
	.st2{fill:#EE8B22;}
	.st3{fill:#781134;}
	.st4{fill:#096C7B;}
	.st5{fill:#2D608D;}
	.st6{fill:#D62E1E;}
	.st7{fill:#406642;}
	.st8{fill:#082A59;}
	.st9{fill:#7DC3EA;}
	.st10{fill:#CE2E13;}
	.st11{fill:#FFFFFF;stroke:#FFFFFF;stroke-width:0.25;stroke-linecap:round;stroke-miterlimit:10;}
	.st12{fill:none;stroke:#FFFFFF;stroke-width:4;stroke-linecap:round;stroke-miterlimit:10;}
	.st13{fill:#FFFFFF;}
	.st14{fill:#FFFFFF;stroke:#000000;stroke-miterlimit:10;}
	.st15{fill:none;}
	.st16{fill:none;stroke:#E0040B;stroke-width:0.5;stroke-miterlimit:10;}
	.st17{fill:#FFFFFF;stroke:#E0040B;stroke-width:0.5;stroke-miterlimit:10;}
	.st18{fill:#E0040B;}
	.st19{fill:#001881;}
</style></svg>
